<svg xmlns="http://www.w3.org/2000/svg" width="24" height="24" viewBox="0 0 24 24" class="icon mb-2 fill-black !h-[64px] !w-[64px]">
  <path d="M10,14 C12.6887547,14 14.8818181,16.1223067 14.9953805,18.7831104 L15,19 L15,21 C15,21.5128358 14.6139598,21.9355072 14.1166211,21.9932723 L14,22 L1,22 C0.487164161,22 0.0644928393,21.6139598 0.00672773133,21.1166211 L0,21 L0,19 C0,16.3112453 2.12230671,14.1181819 4.78311038,14.0046195 L5,14 L10,14 Z M16.2345457,2.25082578 C17.0275663,2.43191258 17.7921904,2.70892552 18.5138328,3.07452803 C21.8509231,4.76518322 24,8.1911098 24,12 C24,15.811782 21.8476503,19.2398698 18.5066306,20.9291172 C18.0137627,21.1783153 17.4121993,20.9807819 17.1630012,20.487914 C16.9138031,19.9950461 17.1113365,19.3934828 17.6042044,19.1442847 C20.2783847,17.7921969 22,15.0501478 22,12 C22,8.95216242 20.2810068,6.21184888 17.6099616,4.85862916 C17.0333526,4.56650428 16.4226945,4.34527115 15.7893051,4.20063625 C15.2508798,4.07768646 14.9140704,3.54153602 15.0370202,3.00311073 C15.1599699,2.46468544 15.6961204,2.127876 16.2345457,2.25082578 Z M10,16 L5,16 C3.40231912,16 2.09633912,17.24892 2.00509269,18.8237272 L2,19 L2,20 L13,20 L13,19 C13,17.4614925 11.8418794,16.1934785 10.3498634,16.0201832 L10.1762728,16.0050927 L10,16 Z M16.4205339,6.50854441 C18.5779794,7.46066247 20,9.60036449 20,12 C20,13.9051859 19.1047816,15.6636263 17.6137985,16.7899736 C17.1731239,17.1228765 16.5460154,17.0355103 16.2131125,16.5948357 C15.8802096,16.1541611 15.9675758,15.5270526 16.4082504,15.1941497 C17.4040969,14.4418481 18,13.2713403 18,12 C18,10.3997717 17.0519994,8.97332352 15.6130378,8.33828484 C15.1077689,8.11530094 14.8789317,7.52493543 15.1019156,7.01966656 C15.3248995,6.5143977 15.915265,6.28556052 16.4205339,6.50854441 Z M7.5,2 C10.5375661,2 13,4.46243388 13,7.5 C13,10.5375661 10.5375661,13 7.5,13 C4.46243388,13 2,10.5375661 2,7.5 C2,4.46243388 4.46243388,2 7.5,2 Z M15,11 C15.5522847,11 16,11.4477153 16,12 C16,12.5522847 15.5522847,13 15,13 C14.4477153,13 14,12.5522847 14,12 C14,11.4477153 14.4477153,11 15,11 Z M7.5,4 C5.56700338,4 4,5.56700338 4,7.5 C4,9.43299662 5.56700338,11 7.5,11 C9.43299662,11 11,9.43299662 11,7.5 C11,5.56700338 9.43299662,4 7.5,4 Z"></path>
</svg>