<svg xmlns="http://www.w3.org/2000/svg" width="24" height="24" viewBox="0 0 24 24" class="icon block w-6 fill-current"><path fill-rule="evenodd" clip-rule="evenodd" d="M1.12906 2.54588C1.2998 2.2109 1.64401 2 2.02 2H8.54C8.85995 2 9.16058 2.1531 9.34876 2.41186L13.4855 8.10028L19.2929 2.29289C19.6834 1.90237 20.3166 1.90237 20.7071 2.29289C21.0976 2.68342 21.0976 3.31658 20.7071 3.70711L14.6764 9.73784L22.3676 20.3139C22.5365 20.493 22.64 20.7344 22.64 21C22.64 21.5523 22.1923 22 21.64 22H15.09C14.7698 22 14.469 21.8467 14.2808 21.5876L9.46248 14.9517L2.70711 21.7071C2.31658 22.0976 1.68342 22.0976 1.29289 21.7071C0.902369 21.3166 0.902369 20.6834 1.29289 20.2929L8.27266 13.3131L1.21082 3.58756C0.989903 3.28331 0.958315 2.88087 1.12906 2.54588ZM19.6663 20H15.5997L3.98193 4H8.03075L19.6663 20Z"></path></svg>