<svg width="1440" height="519" viewBox="0 0 1440 519" fill="none" xmlns="http://www.w3.org/2000/svg">
<g opacity="0.2">
<path d="M12.5818 289.118V229.882C12.5818 228.014 11.0677 226.5 9.2 226.5C7.33227 226.5 5.81818 228.014 5.81818 229.882V289.118C5.81818 290.986 7.33227 292.5 9.2 292.5C11.0677 292.5 12.5818 290.986 12.5818 289.118Z" fill="#ED1C24"/>
<path d="M27.3454 296.618V222.382C27.3454 220.514 25.8313 219 23.9636 219C22.0959 219 20.5818 220.514 20.5818 222.382V296.618C20.5818 298.486 22.0959 300 23.9636 300C25.8313 300 27.3454 298.486 27.3454 296.618Z" fill="#ED1C24"/>
<path d="M42.1091 303.618V215.382C42.1091 213.514 40.595 212 38.7273 212C36.8596 212 35.3455 213.514 35.3455 215.382V303.618C35.3455 305.486 36.8596 307 38.7273 307C40.595 307 42.1091 305.486 42.1091 303.618Z" fill="#ED1C24"/>
<path d="M56.8728 296.618V222.382C56.8728 220.514 55.3587 219 53.491 219C51.6232 219 50.1091 220.514 50.1091 222.382V296.618C50.1091 298.486 51.6232 300 53.491 300C55.3587 300 56.8728 298.486 56.8728 296.618Z" fill="#ED1C24"/>
<path d="M71.6364 280.618V238.382C71.6364 236.514 70.1223 235 68.2546 235C66.3868 235 64.8727 236.514 64.8727 238.382V280.618C64.8727 282.486 66.3868 284 68.2546 284C70.1223 284 71.6364 282.486 71.6364 280.618Z" fill="#ED1C24"/>
<path d="M86.4 268.618V250.382C86.4 248.514 84.8859 247 83.0182 247C81.1504 247 79.6364 248.514 79.6364 250.382V268.618C79.6364 270.486 81.1504 272 83.0182 272C84.8859 272 86.4 270.486 86.4 268.618Z" fill="#ED1C24"/>
<path d="M101.164 268.618V250.382C101.164 248.514 99.6496 247 97.7818 247C95.9141 247 94.4 248.514 94.4 250.382V268.618C94.4 270.486 95.9141 272 97.7818 272C99.6496 272 101.164 270.486 101.164 268.618Z" fill="#ED1C24"/>
<path d="M115.927 313.618V205.382C115.927 203.514 114.413 202 112.546 202C110.678 202 109.164 203.514 109.164 205.382V313.618C109.164 315.486 110.678 317 112.546 317C114.413 317 115.927 315.486 115.927 313.618Z" fill="#ED1C24"/>
<path d="M130.691 307.118V211.882C130.691 210.014 129.177 208.5 127.309 208.5C125.441 208.5 123.927 210.014 123.927 211.882V307.118C123.927 308.986 125.441 310.5 127.309 310.5C129.177 310.5 130.691 308.986 130.691 307.118Z" fill="#ED1C24"/>
<path d="M145.455 298.118V220.882C145.455 219.014 143.94 217.5 142.073 217.5C140.205 217.5 138.691 219.014 138.691 220.882V298.118C138.691 299.986 140.205 301.5 142.073 301.5C143.94 301.5 145.455 299.986 145.455 298.118Z" fill="#ED1C24"/>
<path d="M160.218 284.618V234.382C160.218 232.514 158.704 231 156.836 231C154.969 231 153.455 232.514 153.455 234.382V284.618C153.455 286.486 154.969 288 156.836 288C158.704 288 160.218 286.486 160.218 284.618Z" fill="#ED1C24"/>
<path d="M174.982 268.618V250.382C174.982 248.514 173.468 247 171.6 247C169.732 247 168.218 248.514 168.218 250.382V268.618C168.218 270.486 169.732 272 171.6 272C173.468 272 174.982 270.486 174.982 268.618Z" fill="#ED1C24"/>
<path d="M189.746 321.118V197.882C189.746 196.014 188.231 194.5 186.364 194.5C184.496 194.5 182.982 196.014 182.982 197.882V321.118C182.982 322.986 184.496 324.5 186.364 324.5C188.231 324.5 189.746 322.986 189.746 321.118Z" fill="#ED1C24"/>
<path d="M204.509 388.118V130.882C204.509 129.014 202.995 127.5 201.127 127.5C199.26 127.5 197.745 129.014 197.745 130.882V388.118C197.745 389.986 199.26 391.5 201.127 391.5C202.995 391.5 204.509 389.986 204.509 388.118Z" fill="#ED1C24"/>
<path d="M219.273 416.618V102.382C219.273 100.514 217.759 99 215.891 99C214.023 99 212.509 100.514 212.509 102.382V416.618C212.509 418.486 214.023 420 215.891 420C217.759 420 219.273 418.486 219.273 416.618Z" fill="#ED1C24"/>
<path d="M234.036 370.618V148.382C234.036 146.514 232.522 145 230.655 145C228.787 145 227.273 146.514 227.273 148.382V370.618C227.273 372.486 228.787 374 230.655 374C232.522 374 234.036 372.486 234.036 370.618Z" fill="#ED1C24"/>
<path d="M248.8 307.118V211.882C248.8 210.014 247.286 208.5 245.418 208.5C243.551 208.5 242.036 210.014 242.036 211.882V307.118C242.036 308.986 243.551 310.5 245.418 310.5C247.286 310.5 248.8 308.986 248.8 307.118Z" fill="#ED1C24"/>
<path d="M263.564 290.118V228.882C263.564 227.014 262.05 225.5 260.182 225.5C258.314 225.5 256.8 227.014 256.8 228.882V290.118C256.8 291.986 258.314 293.5 260.182 293.5C262.05 293.5 263.564 291.986 263.564 290.118Z" fill="#ED1C24"/>
<path d="M278.327 314.118V204.882C278.327 203.014 276.813 201.5 274.946 201.5C273.078 201.5 271.564 203.014 271.564 204.882V314.118C271.564 315.986 273.078 317.5 274.946 317.5C276.813 317.5 278.327 315.986 278.327 314.118Z" fill="#ED1C24"/>
<path d="M293.091 268.618V250.382C293.091 248.514 291.577 247 289.709 247C287.841 247 286.327 248.514 286.327 250.382V268.618C286.327 270.486 287.841 272 289.709 272C291.577 272 293.091 270.486 293.091 268.618Z" fill="#ED1C24"/>
<path d="M307.855 286.618V232.382C307.855 230.514 306.341 229 304.473 229C302.605 229 301.091 230.514 301.091 232.382V286.618C301.091 288.486 302.605 290 304.473 290C306.341 290 307.855 288.486 307.855 286.618Z" fill="#ED1C24"/>
<path d="M322.618 332.618V186.382C322.618 184.514 321.104 183 319.236 183C317.369 183 315.855 184.514 315.855 186.382V332.618C315.855 334.486 317.369 336 319.236 336C321.104 336 322.618 334.486 322.618 332.618Z" fill="#ED1C24"/>
<path d="M337.382 317.118V201.882C337.382 200.014 335.868 198.5 334 198.5C332.132 198.5 330.618 200.014 330.618 201.882V317.118C330.618 318.986 332.132 320.5 334 320.5C335.868 320.5 337.382 318.986 337.382 317.118Z" fill="#ED1C24"/>
<path d="M352.146 297.618V221.382C352.146 219.514 350.631 218 348.764 218C346.896 218 345.382 219.514 345.382 221.382V297.618C345.382 299.486 346.896 301 348.764 301C350.631 301 352.146 299.486 352.146 297.618Z" fill="#ED1C24"/>
<path d="M366.909 268.618V250.382C366.909 248.514 365.395 247 363.527 247C361.66 247 360.146 248.514 360.146 250.382V268.618C360.146 270.486 361.66 272 363.527 272C365.395 272 366.909 270.486 366.909 268.618Z" fill="#ED1C24"/>
<path d="M381.673 268.618V250.382C381.673 248.514 380.159 247 378.291 247C376.423 247 374.909 248.514 374.909 250.382V268.618C374.909 270.486 376.423 272 378.291 272C380.159 272 381.673 270.486 381.673 268.618Z" fill="#ED1C24"/>
<path d="M396.436 268.618V250.382C396.436 248.514 394.922 247 393.055 247C391.187 247 389.673 248.514 389.673 250.382V268.618C389.673 270.486 391.187 272 393.055 272C394.922 272 396.436 270.486 396.436 268.618Z" fill="#ED1C24"/>
<path d="M411.2 288.118V230.882C411.2 229.014 409.686 227.5 407.818 227.5C405.951 227.5 404.436 229.014 404.436 230.882V288.118C404.436 289.986 405.951 291.5 407.818 291.5C409.686 291.5 411.2 289.986 411.2 288.118Z" fill="#ED1C24"/>
<path d="M425.964 299.118V219.882C425.964 218.014 424.45 216.5 422.582 216.5C420.714 216.5 419.2 218.014 419.2 219.882V299.118C419.2 300.986 420.714 302.5 422.582 302.5C424.45 302.5 425.964 300.986 425.964 299.118Z" fill="#ED1C24"/>
<path d="M440.727 310.118V208.882C440.727 207.014 439.213 205.5 437.346 205.5C435.478 205.5 433.964 207.014 433.964 208.882V310.118C433.964 311.986 435.478 313.5 437.346 313.5C439.213 313.5 440.727 311.986 440.727 310.118Z" fill="#ED1C24"/>
<path d="M455.491 323.618V195.382C455.491 193.514 453.977 192 452.109 192C450.242 192 448.727 193.514 448.727 195.382V323.618C448.727 325.486 450.242 327 452.109 327C453.977 327 455.491 325.486 455.491 323.618Z" fill="#ED1C24"/>
<path d="M470.255 310.118V208.882C470.255 207.014 468.741 205.5 466.873 205.5C465.005 205.5 463.491 207.014 463.491 208.882V310.118C463.491 311.986 465.005 313.5 466.873 313.5C468.741 313.5 470.255 311.986 470.255 310.118Z" fill="#ED1C24"/>
<path d="M485.018 268.618V250.382C485.018 248.514 483.504 247 481.637 247C479.769 247 478.255 248.514 478.255 250.382V268.618C478.255 270.486 479.769 272 481.637 272C483.504 272 485.018 270.486 485.018 268.618Z" fill="#ED1C24"/>
<path d="M499.782 276.118V242.882C499.782 241.014 498.268 239.5 496.4 239.5C494.533 239.5 493.018 241.014 493.018 242.882V276.118C493.018 277.986 494.533 279.5 496.4 279.5C498.268 279.5 499.782 277.986 499.782 276.118Z" fill="#ED1C24"/>
<path d="M514.546 299.118V219.882C514.546 218.014 513.032 216.5 511.164 216.5C509.296 216.5 507.782 218.014 507.782 219.882V299.118C507.782 300.986 509.296 302.5 511.164 302.5C513.032 302.5 514.546 300.986 514.546 299.118Z" fill="#ED1C24"/>
<path d="M529.309 321.618V197.382C529.309 195.514 527.795 194 525.928 194C524.06 194 522.546 195.514 522.546 197.382V321.618C522.546 323.486 524.06 325 525.928 325C527.795 325 529.309 323.486 529.309 321.618Z" fill="#ED1C24"/>
<path d="M544.073 310.118V208.882C544.073 207.014 542.559 205.5 540.691 205.5C538.824 205.5 537.309 207.014 537.309 208.882V310.118C537.309 311.986 538.824 313.5 540.691 313.5C542.559 313.5 544.073 311.986 544.073 310.118Z" fill="#ED1C24"/>
<path d="M558.837 336.618V182.382C558.837 180.514 557.323 179 555.455 179C553.587 179 552.073 180.514 552.073 182.382V336.618C552.073 338.486 553.587 340 555.455 340C557.323 340 558.837 338.486 558.837 336.618Z" fill="#ED1C24"/>
<path d="M573.6 285.618V233.382C573.6 231.514 572.086 230 570.219 230C568.351 230 566.837 231.514 566.837 233.382V285.618C566.837 287.486 568.351 289 570.219 289C572.086 289 573.6 287.486 573.6 285.618Z" fill="#ED1C24"/>
<path d="M588.364 274.118V244.882C588.364 243.014 586.85 241.5 584.982 241.5C583.115 241.5 581.6 243.014 581.6 244.882V274.118C581.6 275.986 583.115 277.5 584.982 277.5C586.85 277.5 588.364 275.986 588.364 274.118Z" fill="#ED1C24"/>
<path d="M603.128 268.618V250.382C603.128 248.514 601.614 247 599.746 247C597.878 247 596.364 248.514 596.364 250.382V268.618C596.364 270.486 597.878 272 599.746 272C601.614 272 603.128 270.486 603.128 268.618Z" fill="#ED1C24"/>
<path d="M617.891 268.618V250.382C617.891 248.514 616.377 247 614.51 247C612.642 247 611.128 248.514 611.128 250.382V268.618C611.128 270.486 612.642 272 614.51 272C616.377 272 617.891 270.486 617.891 268.618Z" fill="#ED1C24"/>
<path d="M632.655 276.118V242.882C632.655 241.014 631.141 239.5 629.273 239.5C627.406 239.5 625.891 241.014 625.891 242.882V276.118C625.891 277.986 627.406 279.5 629.273 279.5C631.141 279.5 632.655 277.986 632.655 276.118Z" fill="#ED1C24"/>
<path d="M647.419 285.618V233.382C647.419 231.514 645.905 230 644.037 230C642.169 230 640.655 231.514 640.655 233.382V285.618C640.655 287.486 642.169 289 644.037 289C645.905 289 647.419 287.486 647.419 285.618Z" fill="#ED1C24"/>
<path d="M662.182 299.118V219.882C662.182 218.014 660.668 216.5 658.801 216.5C656.933 216.5 655.419 218.014 655.419 219.882V299.118C655.419 300.986 656.933 302.5 658.801 302.5C660.668 302.5 662.182 300.986 662.182 299.118Z" fill="#ED1C24"/>
<path d="M676.946 347.118V171.882C676.946 170.014 675.432 168.5 673.564 168.5C671.697 168.5 670.182 170.014 670.182 171.882V347.118C670.182 348.986 671.697 350.5 673.564 350.5C675.432 350.5 676.946 348.986 676.946 347.118Z" fill="#ED1C24"/>
<path d="M691.71 378.618V140.382C691.71 138.514 690.196 137 688.328 137C686.46 137 684.946 138.514 684.946 140.382V378.618C684.946 380.486 686.46 382 688.328 382C690.196 382 691.71 380.486 691.71 378.618Z" fill="#ED1C24"/>
<path d="M706.473 403.118V115.882C706.473 114.014 704.959 112.5 703.092 112.5C701.224 112.5 699.71 114.014 699.71 115.882V403.118C699.71 404.986 701.224 406.5 703.092 406.5C704.959 406.5 706.473 404.986 706.473 403.118Z" fill="#ED1C24"/>
<path d="M721.237 432.118V86.8818C721.237 85.0141 719.723 83.5 717.855 83.5C715.988 83.5 714.474 85.0141 714.474 86.8818V432.118C714.474 433.986 715.988 435.5 717.855 435.5C719.723 435.5 721.237 433.986 721.237 432.118Z" fill="#ED1C24"/>
<path d="M736.001 482.118V36.8818C736.001 35.0141 734.487 33.5 732.619 33.5C730.751 33.5 729.237 35.0141 729.237 36.8818V482.118C729.237 483.986 730.751 485.5 732.619 485.5C734.487 485.5 736.001 483.986 736.001 482.118Z" fill="#ED1C24"/>
<path d="M744.001 3.38184L744.001 515.618C744.001 517.486 745.515 519 747.383 519C749.25 519 750.765 517.486 750.765 515.618L750.765 3.38184C750.765 1.5141 749.25 0 747.383 0C745.515 0 744.001 1.5141 744.001 3.38184Z" fill="#ED1C24"/>
<path d="M758.765 68.3818V450.618C758.765 452.486 760.279 454 762.146 454C764.014 454 765.528 452.486 765.528 450.618V68.3818C765.528 66.5141 764.014 65 762.146 65C760.279 65 758.765 66.5141 758.765 68.3818Z" fill="#ED1C24"/>
<path d="M773.528 133.882V385.118C773.528 386.986 775.042 388.5 776.91 388.5C778.778 388.5 780.292 386.986 780.292 385.118V133.882C780.292 132.014 778.778 130.5 776.91 130.5C775.042 130.5 773.528 132.014 773.528 133.882Z" fill="#ED1C24"/>
<path d="M788.292 153.382V365.618C788.292 367.486 789.806 369 791.674 369C793.541 369 795.056 367.486 795.056 365.618V153.382C795.056 151.514 793.541 150 791.674 150C789.806 150 788.292 151.514 788.292 153.382Z" fill="#ED1C24"/>
<path d="M803.056 188.882V330.118C803.056 331.986 804.57 333.5 806.437 333.5C808.305 333.5 809.819 331.986 809.819 330.118V188.882C809.819 187.014 808.305 185.5 806.437 185.5C804.57 185.5 803.056 187.014 803.056 188.882Z" fill="#ED1C24"/>
<path d="M817.819 219.882V299.118C817.819 300.986 819.333 302.5 821.201 302.5C823.069 302.5 824.583 300.986 824.583 299.118V219.882C824.583 218.014 823.069 216.5 821.201 216.5C819.333 216.5 817.819 218.014 817.819 219.882Z" fill="#ED1C24"/>
<path d="M832.583 233.382V285.618C832.583 287.486 834.097 289 835.965 289C837.832 289 839.347 287.486 839.347 285.618V233.382C839.347 231.514 837.832 230 835.965 230C834.097 230 832.583 231.514 832.583 233.382Z" fill="#ED1C24"/>
<path d="M847.347 242.882V276.118C847.347 277.986 848.861 279.5 850.728 279.5C852.596 279.5 854.11 277.986 854.11 276.118V242.882C854.11 241.014 852.596 239.5 850.728 239.5C848.861 239.5 847.347 241.014 847.347 242.882Z" fill="#ED1C24"/>
<path d="M862.11 250.382V268.618C862.11 270.486 863.624 272 865.492 272C867.36 272 868.874 270.486 868.874 268.618V250.382C868.874 248.514 867.36 247 865.492 247C863.624 247 862.11 248.514 862.11 250.382Z" fill="#ED1C24"/>
<path d="M876.874 250.382V268.618C876.874 270.486 878.388 272 880.256 272C882.123 272 883.638 270.486 883.638 268.618V250.382C883.638 248.514 882.123 247 880.256 247C878.388 247 876.874 248.514 876.874 250.382Z" fill="#ED1C24"/>
<path d="M891.638 244.882V274.118C891.638 275.986 893.152 277.5 895.019 277.5C896.887 277.5 898.401 275.986 898.401 274.118V244.882C898.401 243.014 896.887 241.5 895.019 241.5C893.152 241.5 891.638 243.014 891.638 244.882Z" fill="#ED1C24"/>
<path d="M906.401 233.382V285.618C906.401 287.486 907.915 289 909.783 289C911.651 289 913.165 287.486 913.165 285.618V233.382C913.165 231.514 911.651 230 909.783 230C907.915 230 906.401 231.514 906.401 233.382Z" fill="#ED1C24"/>
<path d="M921.165 182.382V336.618C921.165 338.486 922.679 340 924.547 340C926.414 340 927.929 338.486 927.929 336.618V182.382C927.929 180.514 926.414 179 924.547 179C922.679 179 921.165 180.514 921.165 182.382Z" fill="#ED1C24"/>
<path d="M935.929 208.882V310.118C935.929 311.986 937.443 313.5 939.31 313.5C941.178 313.5 942.692 311.986 942.692 310.118V208.882C942.692 207.014 941.178 205.5 939.31 205.5C937.443 205.5 935.929 207.014 935.929 208.882Z" fill="#ED1C24"/>
<path d="M950.692 197.382V321.618C950.692 323.486 952.206 325 954.074 325C955.942 325 957.456 323.486 957.456 321.618V197.382C957.456 195.514 955.942 194 954.074 194C952.206 194 950.692 195.514 950.692 197.382Z" fill="#ED1C24"/>
<path d="M965.456 219.882V299.118C965.456 300.986 966.97 302.5 968.838 302.5C970.706 302.5 972.22 300.986 972.22 299.118V219.882C972.22 218.014 970.706 216.5 968.838 216.5C966.97 216.5 965.456 218.014 965.456 219.882Z" fill="#ED1C24"/>
<path d="M980.22 242.882V276.118C980.22 277.986 981.734 279.5 983.601 279.5C985.469 279.5 986.983 277.986 986.983 276.118V242.882C986.983 241.014 985.469 239.5 983.601 239.5C981.734 239.5 980.22 241.014 980.22 242.882Z" fill="#ED1C24"/>
<path d="M994.983 250.382V268.618C994.983 270.486 996.497 272 998.365 272C1000.23 272 1001.75 270.486 1001.75 268.618V250.382C1001.75 248.514 1000.23 247 998.365 247C996.497 247 994.983 248.514 994.983 250.382Z" fill="#ED1C24"/>
<path d="M1009.75 208.882V310.118C1009.75 311.986 1011.26 313.5 1013.13 313.5C1015 313.5 1016.51 311.986 1016.51 310.118V208.882C1016.51 207.014 1015 205.5 1013.13 205.5C1011.26 205.5 1009.75 207.014 1009.75 208.882Z" fill="#ED1C24"/>
<path d="M1024.51 195.382V323.618C1024.51 325.486 1026.02 327 1027.89 327C1029.76 327 1031.27 325.486 1031.27 323.618V195.382C1031.27 193.514 1029.76 192 1027.89 192C1026.02 192 1024.51 193.514 1024.51 195.382Z" fill="#ED1C24"/>
<path d="M1039.27 208.882V310.118C1039.27 311.986 1040.79 313.5 1042.66 313.5C1044.52 313.5 1046.04 311.986 1046.04 310.118V208.882C1046.04 207.014 1044.52 205.5 1042.66 205.5C1040.79 205.5 1039.27 207.014 1039.27 208.882Z" fill="#ED1C24"/>
<path d="M1054.04 219.882V299.118C1054.04 300.986 1055.55 302.5 1057.42 302.5C1059.29 302.5 1060.8 300.986 1060.8 299.118V219.882C1060.8 218.014 1059.29 216.5 1057.42 216.5C1055.55 216.5 1054.04 218.014 1054.04 219.882Z" fill="#ED1C24"/>
<path d="M1068.8 230.882V288.118C1068.8 289.986 1070.32 291.5 1072.18 291.5C1074.05 291.5 1075.57 289.986 1075.57 288.118V230.882C1075.57 229.014 1074.05 227.5 1072.18 227.5C1070.32 227.5 1068.8 229.014 1068.8 230.882Z" fill="#ED1C24"/>
<path d="M1083.57 250.382V268.618C1083.57 270.486 1085.08 272 1086.95 272C1088.81 272 1090.33 270.486 1090.33 268.618V250.382C1090.33 248.514 1088.81 247 1086.95 247C1085.08 247 1083.57 248.514 1083.57 250.382Z" fill="#ED1C24"/>
<path d="M1098.33 250.382V268.618C1098.33 270.486 1099.84 272 1101.71 272C1103.58 272 1105.09 270.486 1105.09 268.618V250.382C1105.09 248.514 1103.58 247 1101.71 247C1099.84 247 1098.33 248.514 1098.33 250.382Z" fill="#ED1C24"/>
<path d="M1113.09 250.382V268.618C1113.09 270.486 1114.61 272 1116.47 272C1118.34 272 1119.86 270.486 1119.86 268.618V250.382C1119.86 248.514 1118.34 247 1116.47 247C1114.61 247 1113.09 248.514 1113.09 250.382Z" fill="#ED1C24"/>
<path d="M1127.86 221.382V297.618C1127.86 299.486 1129.37 301 1131.24 301C1133.11 301 1134.62 299.486 1134.62 297.618V221.382C1134.62 219.514 1133.11 218 1131.24 218C1129.37 218 1127.86 219.514 1127.86 221.382Z" fill="#ED1C24"/>
<path d="M1142.62 130.382V388.618C1142.62 390.486 1144.13 392 1146 392C1147.87 392 1149.38 390.486 1149.38 388.618V130.382C1149.38 128.514 1147.87 127 1146 127C1144.13 127 1142.62 128.514 1142.62 130.382Z" fill="#ED1C24"/>
<path d="M1157.38 104.382V414.618C1157.38 416.486 1158.9 418 1160.77 418C1162.63 418 1164.15 416.486 1164.15 414.618V104.382C1164.15 102.514 1162.63 101 1160.77 101C1158.9 101 1157.38 102.514 1157.38 104.382Z" fill="#ED1C24"/>
<path d="M1172.15 167.882V351.118C1172.15 352.986 1173.66 354.5 1175.53 354.5C1177.4 354.5 1178.91 352.986 1178.91 351.118V167.882C1178.91 166.014 1177.4 164.5 1175.53 164.5C1173.66 164.5 1172.15 166.014 1172.15 167.882Z" fill="#ED1C24"/>
<path d="M1186.91 250.382V268.618C1186.91 270.486 1188.43 272 1190.29 272C1192.16 272 1193.67 270.486 1193.67 268.618V250.382C1193.67 248.514 1192.16 247 1190.29 247C1188.43 247 1186.91 248.514 1186.91 250.382Z" fill="#ED1C24"/>
<path d="M1201.67 204.882V314.118C1201.67 315.986 1203.19 317.5 1205.06 317.5C1206.92 317.5 1208.44 315.986 1208.44 314.118V204.882C1208.44 203.014 1206.92 201.5 1205.06 201.5C1203.19 201.5 1201.67 203.014 1201.67 204.882Z" fill="#ED1C24"/>
<path d="M1216.44 228.882V290.118C1216.44 291.986 1217.95 293.5 1219.82 293.5C1221.69 293.5 1223.2 291.986 1223.2 290.118V228.882C1223.2 227.014 1221.69 225.5 1219.82 225.5C1217.95 225.5 1216.44 227.014 1216.44 228.882Z" fill="#ED1C24"/>
<path d="M1231.2 211.882V307.118C1231.2 308.986 1232.72 310.5 1234.58 310.5C1236.45 310.5 1237.97 308.986 1237.97 307.118V211.882C1237.97 210.014 1236.45 208.5 1234.58 208.5C1232.72 208.5 1231.2 210.014 1231.2 211.882Z" fill="#ED1C24"/>
<path d="M1245.97 148.382V370.618C1245.97 372.486 1247.48 374 1249.35 374C1251.22 374 1252.73 372.486 1252.73 370.618V148.382C1252.73 146.514 1251.22 145 1249.35 145C1247.48 145 1245.97 146.514 1245.97 148.382Z" fill="#ED1C24"/>
<path d="M1260.73 102.382V416.618C1260.73 418.486 1262.24 420 1264.11 420C1265.98 420 1267.49 418.486 1267.49 416.618V102.382C1267.49 100.514 1265.98 99 1264.11 99C1262.24 99 1260.73 100.514 1260.73 102.382Z" fill="#ED1C24"/>
<path d="M1275.49 130.882V388.118C1275.49 389.986 1277.01 391.5 1278.87 391.5C1280.74 391.5 1282.26 389.986 1282.26 388.118V130.882C1282.26 129.014 1280.74 127.5 1278.87 127.5C1277.01 127.5 1275.49 129.014 1275.49 130.882Z" fill="#ED1C24"/>
<path d="M1290.26 197.882V321.118C1290.26 322.986 1291.77 324.5 1293.64 324.5C1295.51 324.5 1297.02 322.986 1297.02 321.118V197.882C1297.02 196.014 1295.51 194.5 1293.64 194.5C1291.77 194.5 1290.26 196.014 1290.26 197.882Z" fill="#ED1C24"/>
<path d="M1305.02 250.382V268.618C1305.02 270.486 1306.53 272 1308.4 272C1310.27 272 1311.78 270.486 1311.78 268.618V250.382C1311.78 248.514 1310.27 247 1308.4 247C1306.53 247 1305.02 248.514 1305.02 250.382Z" fill="#ED1C24"/>
<path d="M1319.78 234.382V284.618C1319.78 286.486 1321.3 288 1323.17 288C1325.03 288 1326.55 286.486 1326.55 284.618V234.382C1326.55 232.514 1325.03 231 1323.17 231C1321.3 231 1319.78 232.514 1319.78 234.382Z" fill="#ED1C24"/>
<path d="M1334.55 220.882V298.118C1334.55 299.986 1336.06 301.5 1337.93 301.5C1339.8 301.5 1341.31 299.986 1341.31 298.118V220.882C1341.31 219.014 1339.8 217.5 1337.93 217.5C1336.06 217.5 1334.55 219.014 1334.55 220.882Z" fill="#ED1C24"/>
<path d="M1349.31 211.882V307.118C1349.31 308.986 1350.83 310.5 1352.69 310.5C1354.56 310.5 1356.08 308.986 1356.08 307.118V211.882C1356.08 210.014 1354.56 208.5 1352.69 208.5C1350.83 208.5 1349.31 210.014 1349.31 211.882Z" fill="#ED1C24"/>
<path d="M1364.08 205.382V313.618C1364.08 315.486 1365.59 317 1367.46 317C1369.32 317 1370.84 315.486 1370.84 313.618V205.382C1370.84 203.514 1369.32 202 1367.46 202C1365.59 202 1364.08 203.514 1364.08 205.382Z" fill="#ED1C24"/>
<path d="M1378.84 250.382V268.618C1378.84 270.486 1380.35 272 1382.22 272C1384.09 272 1385.6 270.486 1385.6 268.618V250.382C1385.6 248.514 1384.09 247 1382.22 247C1380.35 247 1378.84 248.514 1378.84 250.382Z" fill="#ED1C24"/>
<path d="M1393.6 250.382V268.618C1393.6 270.486 1395.12 272 1396.98 272C1398.85 272 1400.37 270.486 1400.37 268.618V250.382C1400.37 248.514 1398.85 247 1396.98 247C1395.12 247 1393.6 248.514 1393.6 250.382Z" fill="#ED1C24"/>
<path d="M1408.37 238.382V280.618C1408.37 282.486 1409.88 284 1411.75 284C1413.62 284 1415.13 282.486 1415.13 280.618V238.382C1415.13 236.514 1413.62 235 1411.75 235C1409.88 235 1408.37 236.514 1408.37 238.382Z" fill="#ED1C24"/>
<path d="M1423.13 222.382V296.618C1423.13 298.486 1424.64 300 1426.51 300C1428.38 300 1429.89 298.486 1429.89 296.618V222.382C1429.89 220.514 1428.38 219 1426.51 219C1424.64 219 1423.13 220.514 1423.13 222.382Z" fill="#ED1C24"/>
<path d="M1437.89 215.382V303.618C1437.89 305.486 1439.41 307 1441.28 307C1443.14 307 1444.66 305.486 1444.66 303.618V215.382C1444.66 213.514 1443.14 212 1441.28 212C1439.41 212 1437.89 213.514 1437.89 215.382Z" fill="#ED1C24"/>
</g>
</svg>
